# xmcd
#
# Track frame offsets:
#	150
#	12701
#	30181
#	50904
#	67854
#	86175
#	103781
#	123587
#	141792
#	159049
#	173393
#
# Disc length: 2503 seconds
#
# Revision: 1
# Processed by: cddbd v1.5.2PL0 Copyright (c) Steve Scherf et al.
# Submitted via: audiograbber 1.82.02
#
DISCID=8809c50b
DTITLE=Julio Iglésias - Romance
DYEAR=2006
DGENRE=Blues
TTITLE0=Everybody'stalking
TTITLE1=How can you mend a broken heart?
TTITLE2=Careless whisper
TTITLE3=Always on my mind
TTITLE4=Waiting for a girl like you
TTITLE5=Drive
TTITLE6=I want to know what love is
TTITLE7=Right here waiting
TTITLE8=This guy's in love with you
TTITLE9=The most beautiful girl
TTITLE10=it's impossible
EXTD=
EXTT0=
EXTT1=
EXTT2=
EXTT3=
EXTT4=
EXTT5=
EXTT6=
EXTT7=
EXTT8=
EXTT9=
EXTT10=
PLAYORDER=
